<svg xmlns="http://www.w3.org/2000/svg" version="1.1" xmlns:xlink="http://www.w3.org/1999/xlink" xmlns:svgjs="http://svgjs.dev/svgjs" width="2000" height="515" viewBox="0 0 2000 515"><g transform="matrix(1,0,0,1,-1.2120313399004772,-1.2380963655791675)"><svg viewBox="0 0 396 102" data-background-color="#0023ff" preserveAspectRatio="xMidYMid meet" height="515" width="2000" xmlns="http://www.w3.org/2000/svg" xmlns:xlink="http://www.w3.org/1999/xlink"><g id="tight-bounds" transform="matrix(1,0,0,1,0.23998220530029357,0.2452152025030614)"><svg viewBox="0 0 395.52 101.5095695949939" height="101.5095695949939" width="395.52"><g><svg viewBox="0 0 395.52 101.5095695949939" height="101.5095695949939" width="395.52"><g><svg viewBox="0 0 395.52 101.5095695949939" height="101.5095695949939" width="395.52"><g><svg viewBox="0 0 395.52 101.5095695949939" height="101.5095695949939" width="395.52"><g><svg viewBox="0 0 395.52 64.19733783058642" height="64.19733783058642" width="395.52"><g transform="matrix(1,0,0,1,0,0)"><svg width="395.52" viewBox="1.9999990463256836 -37.70000076293945 254.78997802734375 38.36000442504883" height="64.19733783058642" data-palette-color="#1ebbd7"><svg></svg><g class="undefined-text-0" data-fill-palette-color="primary" id="text-0"><path xmlns="http://www.w3.org/2000/svg" d="M2-30.3v-6.71h14.21c1.693 0 3.317 0.22 4.87 0.66 1.553 0.44 3.003 1.057 4.35 1.85 1.34 0.8 2.56 1.757 3.66 2.87 1.1 1.113 2.04 2.353 2.82 3.72 0.78 1.373 1.383 2.847 1.81 4.42 0.42 1.58 0.63 3.227 0.63 4.94v0c0 1.707-0.21 3.35-0.63 4.93-0.427 1.58-1.03 3.057-1.81 4.43-0.78 1.373-1.72 2.627-2.82 3.76-1.1 1.127-2.32 2.093-3.66 2.9-1.347 0.807-2.797 1.43-4.35 1.87-1.553 0.44-3.177 0.66-4.87 0.66v0h-14.21v-6.69h2.96v-23.61zM16.16-30.3h-3.1v23.61h3.1c1.32 0 2.567-0.31 3.74-0.93 1.173-0.613 2.19-1.453 3.05-2.52 0.86-1.067 1.543-2.32 2.05-3.76 0.507-1.44 0.76-2.99 0.76-4.65v0c0-1.647-0.253-3.187-0.76-4.62-0.507-1.433-1.19-2.677-2.05-3.73-0.86-1.06-1.877-1.89-3.05-2.49-1.173-0.607-2.42-0.91-3.74-0.91zM55.35 0.66v0c-1.68 0-3.283-0.227-4.81-0.68-1.533-0.46-2.963-1.103-4.29-1.93-1.327-0.833-2.53-1.83-3.61-2.99-1.08-1.167-2.003-2.463-2.77-3.89-0.767-1.42-1.36-2.943-1.78-4.57-0.427-1.627-0.64-3.33-0.64-5.11v0c0-1.773 0.213-3.477 0.64-5.11 0.42-1.633 1.013-3.163 1.78-4.59 0.767-1.427 1.69-2.72 2.77-3.88 1.08-1.167 2.283-2.163 3.61-2.99 1.327-0.833 2.757-1.477 4.29-1.93 1.527-0.46 3.13-0.69 4.81-0.69v0c1.673 0 3.28 0.23 4.82 0.69 1.54 0.453 2.973 1.097 4.3 1.93 1.327 0.827 2.53 1.823 3.61 2.99 1.08 1.16 2.007 2.453 2.78 3.88 0.773 1.427 1.373 2.957 1.8 4.59 0.42 1.633 0.63 3.337 0.63 5.11v0c0 1.76-0.21 3.457-0.63 5.09-0.427 1.64-1.027 3.17-1.8 4.59-0.773 1.427-1.7 2.723-2.78 3.89-1.08 1.16-2.283 2.157-3.61 2.99-1.327 0.827-2.76 1.47-4.3 1.93-1.54 0.453-3.147 0.68-4.82 0.68zM55.35-7.01v0c1.413 0 2.71-0.303 3.89-0.91 1.18-0.613 2.193-1.443 3.04-2.49 0.847-1.053 1.503-2.273 1.97-3.66 0.46-1.393 0.69-2.873 0.69-4.44v0c0-1.573-0.237-3.06-0.71-4.46-0.467-1.4-1.13-2.627-1.99-3.68-0.853-1.047-1.867-1.877-3.04-2.49-1.167-0.607-2.45-0.91-3.85-0.91v0c-1.4 0-2.687 0.303-3.86 0.91-1.173 0.613-2.183 1.443-3.03 2.49-0.847 1.053-1.51 2.28-1.99 3.68-0.48 1.4-0.72 2.887-0.72 4.46v0c0 1.567 0.24 3.047 0.72 4.44 0.48 1.387 1.143 2.607 1.99 3.66 0.847 1.047 1.857 1.877 3.03 2.49 1.173 0.607 2.46 0.91 3.86 0.91zM109.94-25.76h-7.55c-0.907-1.3-1.727-2.223-2.46-2.77-0.733-0.547-1.523-0.937-2.37-1.17-0.847-0.233-1.733-0.35-2.66-0.35v0c-1.367 0-2.637 0.303-3.81 0.91-1.173 0.613-2.187 1.443-3.04 2.49-0.853 1.053-1.523 2.273-2.01 3.66-0.493 1.393-0.74 2.873-0.74 4.44v0c0 1.573 0.24 3.057 0.72 4.45 0.48 1.393 1.143 2.61 1.99 3.65 0.847 1.04 1.857 1.867 3.03 2.48 1.173 0.607 2.46 0.91 3.86 0.91v0c0.973 0 1.883-0.157 2.73-0.47 0.847-0.32 1.617-0.74 2.31-1.26 0.693-0.52 1.3-1.117 1.82-1.79 0.52-0.68 0.927-1.387 1.22-2.12v0l7.86 2.2c-0.507 1.593-1.247 3.07-2.22 4.43-0.98 1.36-2.157 2.537-3.53 3.53-1.373 0.993-2.92 1.773-4.64 2.34-1.713 0.573-3.563 0.86-5.55 0.86v0c-1.68 0-3.283-0.227-4.81-0.68-1.533-0.46-2.963-1.103-4.29-1.93-1.327-0.833-2.53-1.837-3.61-3.01-1.08-1.167-2.003-2.463-2.77-3.89-0.767-1.427-1.36-2.957-1.78-4.59-0.427-1.633-0.64-3.337-0.64-5.11v0c0-2.653 0.463-5.14 1.39-7.46 0.933-2.32 2.203-4.347 3.81-6.08 1.613-1.733 3.507-3.1 5.68-4.1 2.173-1.007 4.513-1.51 7.02-1.51v0c2 0 3.683 0.25 5.05 0.75 1.367 0.493 2.873 1.473 4.52 2.94v0h5.47zM134.28-30.3v-6.71h15.7v6.71h-1.27l-11.21 11.89 11.18 11.72h1.2v6.69h-15.7v-6.69h3.74l-5.72-6.05-5.69 6.05h3.32v6.69h-15.69v-6.69h1.68l11.04-11.72-11.31-11.89h-1.32v-6.71h15.7v6.71h-3.73l5.95 6.28 5.91-6.28zM160.94 0v-6.69h3.83v-23.85h-4.49v4.78h-7.96v-11.25h33.67v11.25h-8.01v-4.78h-5.1v23.85h3.9v6.69zM189.5-29.64v-7.37h29.45v12.62h-7.96v-5.25h-9.5v7.3h7.35v7.08h-7.35v8.57h9.5v-6.57h7.96v13.26h-29.45v-6.69h3.88v-22.95zM223.19-30.3v-6.71h19.58c1.907 0 3.61 0.283 5.11 0.85 1.493 0.573 2.753 1.337 3.78 2.29 1.027 0.947 1.813 2.053 2.36 3.32 0.54 1.26 0.81 2.573 0.81 3.94v0c0 1.253-0.133 2.35-0.4 3.29-0.267 0.947-0.657 1.787-1.17 2.52-0.513 0.733-1.143 1.38-1.89 1.94-0.753 0.56-1.61 1.07-2.57 1.53v0c0.833 0.42 1.567 1.067 2.2 1.94 0.633 0.867 1.113 1.993 1.44 3.38v0l1.25 4.81h3.05l0.05 7.2h-10.75l-1.46-8.79c-0.147-1.04-0.37-1.94-0.67-2.7-0.3-0.753-0.703-1.37-1.21-1.85-0.507-0.48-1.12-0.833-1.84-1.06-0.727-0.233-1.587-0.35-2.58-0.35v0h-3.15v8.06h3.4v6.69h-15.34v-6.69h3.84v-23.61zM239.99-30.3h-4.86v8.96h4.86c0.927 0 1.76-0.083 2.5-0.25 0.74-0.173 1.377-0.443 1.91-0.81 0.527-0.367 0.933-0.827 1.22-1.38 0.28-0.553 0.42-1.213 0.42-1.98v0c0-1.433-0.51-2.547-1.53-3.34-1.027-0.8-2.533-1.2-4.52-1.2z" fill="#000000" fill-rule="nonzero" stroke="none" stroke-width="1" stroke-linecap="butt" stroke-linejoin="miter" stroke-miterlimit="10" stroke-dasharray="" stroke-dashoffset="0" font-family="none" font-weight="none" font-size="none" text-anchor="none" style="mix-blend-mode: normal" data-fill-palette-color="primary" opacity="1"></path></g></svg></g></svg></g><g transform="matrix(1,0,0,1,0,78.25335897143732)"><svg viewBox="0 0 300.5952 23.25621062355658" height="23.25621062355658" width="300.5952"><g transform="matrix(1,0,0,1,0,0)"><svg width="300.5952" viewBox="1.75 -35 606.1500244140625 46.900001525878906" height="23.25621062355658" data-palette-color="#4b91f1"><path d="M53.7-29.05L47.7-29.05 47.7-5.25 53.7-5.25 53.7 0 35.6 0 35.6-5.25 41.2-5.25 41.2-17.35Q41.2-20.5 42.05-25.5L42.05-25.5 29.35 0.2 25.8 0.2 13.2-25.2Q13.9-20.2 13.9-17.35L13.9-17.35 13.9-5.25 19.5-5.25 19.5 0 1.75 0 1.75-5.25 7.75-5.25 7.75-29.05 1.75-29.05 1.75-34.3 15-34.3 27.8-8.75 40.35-34.3 53.7-34.3 53.7-29.05ZM83.95-5.1L85.2-0.65Q84.5-0.2 83.35 0.1 82.2 0.4 80.8 0.4L80.8 0.4Q78.9 0.4 77.47-0.68 76.05-1.75 75.5-3.7L75.5-3.7Q70.55 0.7 65.7 0.7L65.7 0.7Q62.25 0.7 59.9-1.23 57.55-3.15 57.55-6.75L57.55-6.75Q57.55-9.25 58.95-11.05 60.35-12.85 62.62-13.78 64.9-14.7 67.45-14.7L67.45-14.7Q69.65-14.7 71.45-14.28 73.25-13.85 75.15-13.05L75.15-13.05 75.15-14.9Q75.15-16.9 73.52-17.9 71.9-18.9 69.35-18.9L69.35-18.9Q65.6-18.9 60.25-16.85L60.25-16.85 59-21.6Q65.05-24.15 70.2-24.15L70.2-24.15Q75.45-24.15 78.27-21.63 81.1-19.1 81.1-14.65L81.1-14.65 81.1-6.75Q81.1-4.8 82.55-4.8L82.55-4.8Q83.25-4.8 83.95-5.1L83.95-5.1ZM63.75-7.1Q63.75-5.8 64.8-5.13 65.85-4.45 67.4-4.45L67.4-4.45Q68.85-4.45 70.9-5.25 72.95-6.05 75.15-7.7L75.15-7.7 75.15-9.05Q72.1-10.2 68.65-10.2L68.65-10.2Q66.6-10.15 65.17-9.38 63.75-8.6 63.75-7.1L63.75-7.1ZM117.25-6.3L120.44-2.7Q119.09-1.05 117.5-0.18 115.9 0.7 113.59 0.7L113.59 0.7Q110.15 0.7 107.75-1.8 105.34-4.3 104.5-8.7L104.5-8.7Q100.95-8.95 97.5-10.6L97.5-10.6 97.5-4.95 101.8-4.95 101.8 0 86.34 0 86.34-4.95 91.34-4.95 91.34-29.35 86.34-29.35 86.34-34.3 97.5-34.3 97.5-19.45Q102.4-24.1 107.55-24.1L107.55-24.1Q111.25-24.1 113.75-22.2 116.25-20.3 116.25-16.7L116.25-16.7Q116.25-13.9 114.45-12 112.65-10.1 109.8-9.25L109.8-9.25Q110.25-7.1 111.37-5.93 112.5-4.75 113.84-4.75L113.84-4.75Q115.8-4.75 117.25-6.3L117.25-6.3ZM97.5-14.55Q101-13.1 104.15-13.1L104.15-13.1Q106.5-13.1 108.12-13.95 109.75-14.8 109.75-16.35L109.75-16.35Q109.75-17.7 108.75-18.35 107.75-19 105.84-19L105.84-19Q104.15-19 101.97-18.05 99.8-17.1 97.5-15.25L97.5-15.25 97.5-14.55ZM143.79-7.7L146.39-3.6Q141.39 0.7 134.84 0.7L134.84 0.7Q131.34 0.7 128.27-0.7 125.19-2.1 123.29-4.8 121.39-7.5 121.39-11.25L121.39-11.25Q121.39-15.15 123.29-18.07 125.19-21 128.34-22.6 131.49-24.2 135.04-24.2L135.04-24.2Q138.14-24.2 140.57-23.25 142.99-22.3 144.37-20.58 145.74-18.85 145.74-16.6L145.74-16.6Q145.74-14.35 144.37-12.73 142.99-11.1 140.77-10.3 138.54-9.5 135.99-9.5L135.99-9.5Q133.59-9.5 131.57-10 129.54-10.5 127.39-11.4L127.39-11.4Q127.44-8.2 129.64-6.38 131.84-4.55 135.09-4.55L135.09-4.55Q140.04-4.6 143.79-7.7L143.79-7.7ZM135.49-19.3Q133.24-19.3 131.22-18.07 129.19-16.85 128.14-14.8L128.14-14.8Q131.24-13.7 134.49-13.7L134.49-13.7Q136.74-13.75 138.12-14.5 139.49-15.25 139.49-16.6L139.49-16.6Q139.49-17.8 138.39-18.55 137.29-19.3 135.49-19.3L135.49-19.3ZM164.49-34.3L200.44-34.3 200.44-22.05 194.64-22.05 194.64-29.05 185.84-29.05 185.84-5.25 191.84-5.25 191.84 0 173.19 0 173.19-5.25 179.19-5.25 179.19-29.05 170.29-29.05 170.29-22.05 164.49-22.05 164.49-34.3ZM223.48-7.7L226.08-3.6Q221.08 0.7 214.53 0.7L214.53 0.7Q211.03 0.7 207.96-0.7 204.88-2.1 202.98-4.8 201.08-7.5 201.08-11.25L201.08-11.25Q201.08-15.15 202.98-18.07 204.88-21 208.03-22.6 211.18-24.2 214.73-24.2L214.73-24.2Q217.83-24.2 220.26-23.25 222.68-22.3 224.06-20.58 225.43-18.85 225.43-16.6L225.43-16.6Q225.43-14.35 224.06-12.73 222.68-11.1 220.46-10.3 218.23-9.5 215.68-9.5L215.68-9.5Q213.28-9.5 211.26-10 209.23-10.5 207.08-11.4L207.08-11.4Q207.13-8.2 209.33-6.38 211.53-4.55 214.78-4.55L214.78-4.55Q219.73-4.6 223.48-7.7L223.48-7.7ZM215.18-19.3Q212.93-19.3 210.91-18.07 208.88-16.85 207.83-14.8L207.83-14.8Q210.93-13.7 214.18-13.7L214.18-13.7Q216.43-13.75 217.81-14.5 219.18-15.25 219.18-16.6L219.18-16.6Q219.18-17.8 218.08-18.55 216.98-19.3 215.18-19.3L215.18-19.3ZM276.18-4.95L280.53-4.95 280.53 0 265.98 0 265.98-4.95 269.93-4.95 269.93-13.4Q269.93-15.6 268.86-16.95 267.78-18.3 265.78-18.3L265.78-18.3Q262.03-18.3 258.33-13.8L258.33-13.8 258.33-13.5 258.33-4.95 262.28-4.95 262.28 0 247.98 0 247.98-4.95 252.08-4.95 252.08-13.4Q252.08-15.6 250.98-16.95 249.88-18.3 247.83-18.3L247.83-18.3Q245.98-18.3 244.06-17.13 242.13-15.95 240.28-13.65L240.28-13.65 240.28-4.95 244.33-4.95 244.33 0 229.03 0 229.03-4.95 234.03-4.95 234.03-18.6 229.03-18.6 229.03-23.55 240.28-23.55 240.28-18.7Q242.38-21.35 244.88-22.75 247.38-24.15 250.13-24.15L250.13-24.15Q252.98-24.15 254.96-22.6 256.93-21.05 257.78-18.1L257.78-18.1Q259.93-21 262.53-22.58 265.13-24.15 268.03-24.15L268.03-24.15Q271.83-24.15 274.01-21.4 276.18-18.65 276.18-13.5L276.18-13.5 276.18-4.95ZM301.68-24.2Q304.58-24.2 307.08-22.63 309.58-21.05 311.08-18.23 312.58-15.4 312.58-11.9L312.58-11.9Q312.58-8.35 310.96-5.45 309.33-2.55 306.51-0.93 303.68 0.7 300.18 0.7L300.18 0.7Q295.93 0.7 292.38-2.4L292.38-2.4 292.38 5.95 297.28 5.95 297.28 10.9 281.23 10.9 281.23 5.95 286.23 5.95 286.23-18.6 281.23-18.6 281.23-23.55 292.38-23.55 292.38-19.05Q294.33-21.45 296.76-22.83 299.18-24.2 301.68-24.2L301.68-24.2ZM298.63-4.55Q301.98-4.55 304.01-6.6 306.03-8.65 306.03-11.95L306.03-11.95Q306.03-15 304.28-16.98 302.53-18.95 299.68-18.95L299.68-18.95Q297.83-18.95 295.93-17.78 294.03-16.6 292.38-14.45L292.38-14.45 292.38-7.05Q295.58-4.55 298.63-4.55L298.63-4.55ZM326.23-4.95L331.28-4.95 331.28 0 314.98 0 314.98-4.95 319.98-4.95 319.98-29.35 314.98-29.35 314.98-34.3 326.23-34.3 326.23-4.95ZM360.27-5.1L361.52-0.65Q360.82-0.2 359.68 0.1 358.52 0.4 357.13 0.4L357.13 0.4Q355.23 0.4 353.8-0.68 352.38-1.75 351.82-3.7L351.82-3.7Q346.88 0.7 342.02 0.7L342.02 0.7Q338.57 0.7 336.23-1.23 333.88-3.15 333.88-6.75L333.88-6.75Q333.88-9.25 335.27-11.05 336.68-12.85 338.95-13.78 341.23-14.7 343.77-14.7L343.77-14.7Q345.98-14.7 347.77-14.28 349.57-13.85 351.48-13.05L351.48-13.05 351.48-14.9Q351.48-16.9 349.85-17.9 348.23-18.9 345.68-18.9L345.68-18.9Q341.93-18.9 336.57-16.85L336.57-16.85 335.32-21.6Q341.38-24.15 346.52-24.15L346.52-24.15Q351.77-24.15 354.6-21.63 357.43-19.1 357.43-14.65L357.43-14.65 357.43-6.75Q357.43-4.8 358.88-4.8L358.88-4.8Q359.57-4.8 360.27-5.1L360.27-5.1ZM340.07-7.1Q340.07-5.8 341.13-5.13 342.18-4.45 343.73-4.45L343.73-4.45Q345.18-4.45 347.23-5.25 349.27-6.05 351.48-7.7L351.48-7.7 351.48-9.05Q348.43-10.2 344.98-10.2L344.98-10.2Q342.93-10.15 341.5-9.38 340.07-8.6 340.07-7.1L340.07-7.1ZM381.42-6.45L383.57-1.8Q381.77-0.65 379.87 0 377.97 0.65 375.57 0.65L375.57 0.65Q371.37 0.65 368.95-2 366.52-4.65 366.52-9.35L366.52-9.35 366.52-18.6 361.57-18.6 361.57-23.55 366.52-23.55 366.52-30.1 372.77-30.1 372.77-23.55 379.97-23.55 379.97-18.6 372.77-18.6 372.77-9.3Q372.77-7.1 373.77-5.98 374.77-4.85 376.62-4.85L376.62-4.85Q377.87-4.85 378.97-5.25 380.07-5.65 381.42-6.45L381.42-6.45ZM392.27-28Q390.42-28 389.17-29 387.92-30 387.92-31.45L387.92-31.45Q387.92-33 389.17-34 390.42-35 392.27-35L392.27-35Q394.22-35 395.44-34 396.67-33 396.67-31.45L396.67-31.45Q396.67-29.95 395.44-28.98 394.22-28 392.27-28L392.27-28ZM395.87-4.95L400.92-4.95 400.92 0 384.62 0 384.62-4.95 389.62-4.95 389.62-18.6 384.62-18.6 384.62-23.55 395.87-23.55 395.87-4.95ZM433.32-4.95L437.62-4.95 437.62 0 422.97 0 422.97-4.95 427.07-4.95 427.07-13.1Q427.07-15.5 425.79-16.9 424.52-18.3 422.17-18.3L422.17-18.3Q418.37-18.3 413.97-13.3L413.97-13.3 413.97-4.95 418.02-4.95 418.02 0 402.72 0 402.72-4.95 407.72-4.95 407.72-18.6 402.72-18.6 402.72-23.55 413.97-23.55 413.97-18.15Q416.67-21.2 419.14-22.68 421.62-24.15 424.47-24.15L424.47-24.15Q428.77-24.15 431.04-21.35 433.32-18.55 433.32-13.15L433.32-13.15 433.32-4.95ZM458.12-4.8Q461.51-4.8 463.62-3.13 465.72-1.45 465.72 1.7L465.72 1.7Q465.72 4.45 463.59 6.5 461.47 8.55 457.87 9.65 454.26 10.75 449.92 10.75L449.92 10.75Q444.87 10.75 441.64 8.95 438.42 7.15 438.42 3.9L438.42 3.9Q438.42 1.3 441.17-1L441.17-1Q439.22-2.65 439.22-5L439.22-5Q439.22-8.45 442.87-10.75L442.87-10.75Q441.06-12.8 441.06-15.6L441.06-15.6Q441.06-18.3 442.72-20.25 444.37-22.2 446.92-23.2 449.47-24.2 452.06-24.2L452.06-24.2Q454.97-24.2 457.37-23.25L457.37-23.25Q458.22-25.85 460.31-27.15 462.42-28.45 465.31-28.5L465.31-28.5 465.31-23.4Q463.56-23.35 462.29-22.98 461.01-22.6 460.12-21.7L460.12-21.7Q463.12-19.35 463.12-15.75L463.12-15.75Q463.12-13.05 461.47-11.1 459.81-9.15 457.26-8.15 454.72-7.15 452.06-7.15L452.06-7.15Q448.47-7.15 445.62-8.65L445.62-8.65Q444.62-7.55 444.62-6.5L444.62-6.5Q444.62-5.3 445.49-4.75 446.37-4.2 447.87-4.2L447.87-4.2Q449.47-4.2 452.47-4.5L452.47-4.5Q455.87-4.8 458.12-4.8L458.12-4.8ZM452.12-19.85Q449.92-19.85 448.54-18.68 447.17-17.5 447.17-15.6L447.17-15.6Q447.17-13.75 448.54-12.63 449.92-11.5 452.12-11.5L452.12-11.5Q454.26-11.5 455.64-12.68 457.01-13.85 457.01-15.75L457.01-15.75Q457.01-17.6 455.64-18.73 454.26-19.85 452.12-19.85L452.12-19.85ZM450.76 5.75Q454.51 5.75 457.26 4.73 460.01 3.7 460.01 2.05L460.01 2.05Q460.01 0.95 459.22 0.5 458.42 0.05 456.72 0.05L456.72 0.05Q455.62 0.05 452.81 0.35L452.81 0.35Q449.31 0.75 446.67 0.75L446.67 0.75Q445.51 0.75 444.37 0.5L444.37 0.5Q443.76 1.55 443.76 2.55L443.76 2.55Q443.76 4.1 445.54 4.93 447.31 5.75 450.76 5.75L450.76 5.75ZM517.81-22.4L512.01-22.4 512.01-29.05 495.61-29.05 495.61-19.4 502.21-19.4 502.21-23.7 507.16-23.7 507.16-10.35 502.21-10.35 502.21-14.65 495.61-14.65 495.61-5.25 512.01-5.25 512.01-11.9 517.81-11.9 517.81 0 483.16 0 483.16-5.25 489.11-5.25 489.11-29.05 483.16-29.05 483.16-34.3 517.81-34.3 517.81-22.4ZM549.31-5.1L550.56-0.65Q549.86-0.2 548.71 0.1 547.56 0.4 546.16 0.4L546.16 0.4Q544.26 0.4 542.83-0.68 541.41-1.75 540.86-3.7L540.86-3.7Q535.91 0.7 531.06 0.7L531.06 0.7Q527.61 0.7 525.26-1.23 522.91-3.15 522.91-6.75L522.91-6.75Q522.91-9.25 524.31-11.05 525.71-12.85 527.98-13.78 530.26-14.7 532.81-14.7L532.81-14.7Q535.01-14.7 536.81-14.28 538.61-13.85 540.51-13.05L540.51-13.05 540.51-14.9Q540.51-16.9 538.88-17.9 537.26-18.9 534.71-18.9L534.71-18.9Q530.96-18.9 525.61-16.85L525.61-16.85 524.36-21.6Q530.41-24.15 535.56-24.15L535.56-24.15Q540.81-24.15 543.63-21.63 546.46-19.1 546.46-14.65L546.46-14.65 546.46-6.75Q546.46-4.8 547.91-4.8L547.91-4.8Q548.61-4.8 549.31-5.1L549.31-5.1ZM529.11-7.1Q529.11-5.8 530.16-5.13 531.21-4.45 532.76-4.45L532.76-4.45Q534.21-4.45 536.26-5.25 538.31-6.05 540.51-7.7L540.51-7.7 540.51-9.05Q537.46-10.2 534.01-10.2L534.01-10.2Q531.96-10.15 530.53-9.38 529.11-8.6 529.11-7.1L529.11-7.1ZM565.4-14.4Q569.96-13.1 572.38-11.15 574.8-9.2 574.8-6.05L574.8-6.05Q574.8-4.1 573.65-2.55 572.5-1 570.5-0.15 568.5 0.7 566.05 0.7L566.05 0.7Q563.55 0.7 561.3-0.1 559.05-0.9 557.3-2.4L557.3-2.4 557.3 0.05 552.75 0.05 552.75-7.7 555.5-7.95Q557-6.05 559.75-4.7 562.5-3.35 564.86-3.35L564.86-3.35Q566.5-3.35 567.4-3.93 568.3-4.5 568.3-5.5L568.3-5.5Q568.3-6.6 566.88-7.45 565.46-8.3 561.8-9.3L561.8-9.3Q557.3-10.55 555-12.43 552.71-14.3 552.71-17.3L552.71-17.3Q552.71-19.2 553.75-20.78 554.8-22.35 556.71-23.28 558.61-24.2 561.11-24.2L561.11-24.2Q565.75-24.2 568.96-21.25L568.96-21.25 568.96-23.55 573.5-23.55 573.5-15.85 570.75-15.6Q569.4-17.75 567.28-18.95 565.15-20.15 562.86-20.15L562.86-20.15Q561.25-20.15 560.23-19.55 559.21-18.95 559.21-18L559.21-18Q559.21-16.95 560.58-16.18 561.96-15.4 565.4-14.4L565.4-14.4ZM607.9-23.55L607.9-18.6 604.75-18.6 595.35 1.95Q593 7.05 590.23 9.47 587.45 11.9 583.7 11.9L583.7 11.9Q581.65 11.9 580.05 11.28 578.45 10.65 576.5 9.45L576.5 9.45 578.95 4.7Q580.15 5.45 581.28 5.93 582.4 6.4 583.7 6.4L583.7 6.4Q585.85 6.4 587.48 5.1 589.1 3.8 590.45 0.8L590.45 0.8 590.5 0.65 580.65-18.6 577.25-18.6 577.25-23.55 590.9-23.55 590.9-19.1 587.25-19.1 593.35-5.75 599.2-19.1 595.75-19.1 595.75-23.55 607.9-23.55Z" opacity="1" transform="matrix(1,0,0,1,0,0)" fill="#000000" class="undefined-text-1" data-fill-palette-color="secondary" id="text-1"></path></svg></g></svg></g></svg></g></svg></g></svg></g><defs></defs></svg><rect width="395.52" height="101.5095695949939" fill="none" stroke="none" visibility="hidden"></rect></g></svg></g></svg>