<svg xmlns="http://www.w3.org/2000/svg" version="1.1" xmlns:xlink="http://www.w3.org/1999/xlink" xmlns:svgjs="http://svgjs.dev/svgjs" width="1000" height="244" viewBox="0 0 1000 244"><g transform="matrix(1,0,0,1,-0.6060156699502386,0.20420558443947812)"><svg viewBox="0 0 396 97" data-background-color="#0023ff" preserveAspectRatio="xMidYMid meet" height="244" width="1000" xmlns="http://www.w3.org/2000/svg" xmlns:xlink="http://www.w3.org/1999/xlink"><g id="tight-bounds" transform="matrix(1,0,0,1,0.23998220530029357,-0.08118008889601924)"><svg viewBox="0 0 395.52 97.16236017779204" height="97.16236017779204" width="395.52"><g><svg viewBox="0 0 395.52 97.16236017779204" height="97.16236017779204" width="395.52"><g><svg viewBox="0 0 395.52 97.16236017779204" height="97.16236017779204" width="395.52"><g><svg viewBox="0 0 395.52 97.16236017779204" height="97.16236017779204" width="395.52"><g><svg viewBox="0 0 395.52 64.19733783058642" height="64.19733783058642" width="395.52"><g transform="matrix(1,0,0,1,0,0)"><svg width="395.52" viewBox="1.9999990463256836 -37.70000076293945 254.78997802734375 38.36000442504883" height="64.19733783058642" data-palette-color="#1ebbd7"><svg></svg><g class="undefined-text-0" data-fill-palette-color="primary" id="text-0"><path xmlns="http://www.w3.org/2000/svg" d="M2-30.3v-6.71h14.21c1.693 0 3.317 0.22 4.87 0.66 1.553 0.44 3.003 1.057 4.35 1.85 1.34 0.8 2.56 1.757 3.66 2.87 1.1 1.113 2.04 2.353 2.82 3.72 0.78 1.373 1.383 2.847 1.81 4.42 0.42 1.58 0.63 3.227 0.63 4.94v0c0 1.707-0.21 3.35-0.63 4.93-0.427 1.58-1.03 3.057-1.81 4.43-0.78 1.373-1.72 2.627-2.82 3.76-1.1 1.127-2.32 2.093-3.66 2.9-1.347 0.807-2.797 1.43-4.35 1.87-1.553 0.44-3.177 0.66-4.87 0.66v0h-14.21v-6.69h2.96v-23.61zM16.16-30.3h-3.1v23.61h3.1c1.32 0 2.567-0.31 3.74-0.93 1.173-0.613 2.19-1.453 3.05-2.52 0.86-1.067 1.543-2.32 2.05-3.76 0.507-1.44 0.76-2.99 0.76-4.65v0c0-1.647-0.253-3.187-0.76-4.62-0.507-1.433-1.19-2.677-2.05-3.73-0.86-1.06-1.877-1.89-3.05-2.49-1.173-0.607-2.42-0.91-3.74-0.91zM55.35 0.66v0c-1.68 0-3.283-0.227-4.81-0.68-1.533-0.46-2.963-1.103-4.29-1.93-1.327-0.833-2.53-1.83-3.61-2.99-1.08-1.167-2.003-2.463-2.77-3.89-0.767-1.42-1.36-2.943-1.78-4.57-0.427-1.627-0.64-3.33-0.64-5.11v0c0-1.773 0.213-3.477 0.64-5.11 0.42-1.633 1.013-3.163 1.78-4.59 0.767-1.427 1.69-2.72 2.77-3.88 1.08-1.167 2.283-2.163 3.61-2.99 1.327-0.833 2.757-1.477 4.29-1.93 1.527-0.46 3.13-0.69 4.81-0.69v0c1.673 0 3.28 0.23 4.82 0.69 1.54 0.453 2.973 1.097 4.3 1.93 1.327 0.827 2.53 1.823 3.61 2.99 1.08 1.16 2.007 2.453 2.78 3.88 0.773 1.427 1.373 2.957 1.8 4.59 0.42 1.633 0.63 3.337 0.63 5.11v0c0 1.76-0.21 3.457-0.63 5.09-0.427 1.64-1.027 3.17-1.8 4.59-0.773 1.427-1.7 2.723-2.78 3.89-1.08 1.16-2.283 2.157-3.61 2.99-1.327 0.827-2.76 1.47-4.3 1.93-1.54 0.453-3.147 0.68-4.82 0.68zM55.35-7.01v0c1.413 0 2.71-0.303 3.89-0.91 1.18-0.613 2.193-1.443 3.04-2.49 0.847-1.053 1.503-2.273 1.97-3.66 0.46-1.393 0.69-2.873 0.69-4.44v0c0-1.573-0.237-3.06-0.71-4.46-0.467-1.4-1.13-2.627-1.99-3.68-0.853-1.047-1.867-1.877-3.04-2.49-1.167-0.607-2.45-0.91-3.85-0.91v0c-1.4 0-2.687 0.303-3.86 0.91-1.173 0.613-2.183 1.443-3.03 2.49-0.847 1.053-1.51 2.28-1.99 3.68-0.48 1.4-0.72 2.887-0.72 4.46v0c0 1.567 0.24 3.047 0.72 4.44 0.48 1.387 1.143 2.607 1.99 3.66 0.847 1.047 1.857 1.877 3.03 2.49 1.173 0.607 2.46 0.91 3.86 0.91zM109.94-25.76h-7.55c-0.907-1.3-1.727-2.223-2.46-2.77-0.733-0.547-1.523-0.937-2.37-1.17-0.847-0.233-1.733-0.35-2.66-0.35v0c-1.367 0-2.637 0.303-3.81 0.91-1.173 0.613-2.187 1.443-3.04 2.49-0.853 1.053-1.523 2.273-2.01 3.66-0.493 1.393-0.74 2.873-0.74 4.44v0c0 1.573 0.24 3.057 0.72 4.45 0.48 1.393 1.143 2.61 1.99 3.65 0.847 1.04 1.857 1.867 3.03 2.48 1.173 0.607 2.46 0.91 3.86 0.91v0c0.973 0 1.883-0.157 2.73-0.47 0.847-0.32 1.617-0.74 2.31-1.26 0.693-0.52 1.3-1.117 1.82-1.79 0.52-0.68 0.927-1.387 1.22-2.12v0l7.86 2.2c-0.507 1.593-1.247 3.07-2.22 4.43-0.98 1.36-2.157 2.537-3.53 3.53-1.373 0.993-2.92 1.773-4.64 2.34-1.713 0.573-3.563 0.86-5.55 0.86v0c-1.68 0-3.283-0.227-4.81-0.68-1.533-0.46-2.963-1.103-4.29-1.93-1.327-0.833-2.53-1.837-3.61-3.01-1.08-1.167-2.003-2.463-2.77-3.89-0.767-1.427-1.36-2.957-1.78-4.59-0.427-1.633-0.64-3.337-0.64-5.11v0c0-2.653 0.463-5.14 1.39-7.46 0.933-2.32 2.203-4.347 3.81-6.08 1.613-1.733 3.507-3.1 5.68-4.1 2.173-1.007 4.513-1.51 7.02-1.51v0c2 0 3.683 0.25 5.05 0.75 1.367 0.493 2.873 1.473 4.52 2.94v0h5.47zM134.28-30.3v-6.71h15.7v6.71h-1.27l-11.21 11.89 11.18 11.72h1.2v6.69h-15.7v-6.69h3.74l-5.72-6.05-5.69 6.05h3.32v6.69h-15.69v-6.69h1.68l11.04-11.72-11.31-11.89h-1.32v-6.71h15.7v6.71h-3.73l5.95 6.28 5.91-6.28zM160.94 0v-6.69h3.83v-23.85h-4.49v4.78h-7.96v-11.25h33.67v11.25h-8.01v-4.78h-5.1v23.85h3.9v6.69zM189.5-29.64v-7.37h29.45v12.62h-7.96v-5.25h-9.5v7.3h7.35v7.08h-7.35v8.57h9.5v-6.57h7.96v13.26h-29.45v-6.69h3.88v-22.95zM223.19-30.3v-6.71h19.58c1.907 0 3.61 0.283 5.11 0.85 1.493 0.573 2.753 1.337 3.78 2.29 1.027 0.947 1.813 2.053 2.36 3.32 0.54 1.26 0.81 2.573 0.81 3.94v0c0 1.253-0.133 2.35-0.4 3.29-0.267 0.947-0.657 1.787-1.17 2.52-0.513 0.733-1.143 1.38-1.89 1.94-0.753 0.56-1.61 1.07-2.57 1.53v0c0.833 0.42 1.567 1.067 2.2 1.94 0.633 0.867 1.113 1.993 1.44 3.38v0l1.25 4.81h3.05l0.05 7.2h-10.75l-1.46-8.79c-0.147-1.04-0.37-1.94-0.67-2.7-0.3-0.753-0.703-1.37-1.21-1.85-0.507-0.48-1.12-0.833-1.84-1.06-0.727-0.233-1.587-0.35-2.58-0.35v0h-3.15v8.06h3.4v6.69h-15.34v-6.69h3.84v-23.61zM239.99-30.3h-4.86v8.96h4.86c0.927 0 1.76-0.083 2.5-0.25 0.74-0.173 1.377-0.443 1.91-0.81 0.527-0.367 0.933-0.827 1.22-1.38 0.28-0.553 0.42-1.213 0.42-1.98v0c0-1.433-0.51-2.547-1.53-3.34-1.027-0.8-2.533-1.2-4.52-1.2z" fill="#1ebbd7" fill-rule="nonzero" stroke="none" stroke-width="1" stroke-linecap="butt" stroke-linejoin="miter" stroke-miterlimit="10" stroke-dasharray="" stroke-dashoffset="0" font-family="none" font-weight="none" font-size="none" text-anchor="none" style="mix-blend-mode: normal" data-fill-palette-color="primary" opacity="1"></path></g></svg></g></svg></g><g transform="matrix(1,0,0,1,0,78.25335897143732)"><svg viewBox="0 0 232.209792 18.909001206354716" height="18.909001206354716" width="232.209792"><g transform="matrix(1,0,0,1,0,0)"><svg width="232.209792" viewBox="1.7999999523162842 -35 575.9000244140625 46.900001525878906" height="18.909001206354716" data-palette-color="#4b91f1"><path d="M46.85-4.15L53.3-4.15 53.3 0 35.85 0 35.85-4.15 41.8-4.15 41.8-20.95Q41.8-23.35 42.4-27.2L42.4-27.2 28.75 0.35 26.15 0.35 12.6-27Q13.05-23.05 13.05-20.95L13.05-20.95 13.05-4.15 19-4.15 19 0 1.8 0 1.8-4.15 8.2-4.15 8.2-30.15 1.8-30.15 1.8-34.3 13.9-34.3 27.65-6.85 41.15-34.3 53.25-34.3 53.25-30.15 46.85-30.15 46.85-4.15ZM83.25-4.15L84.25-0.6Q82.6 0.4 80.4 0.4L80.4 0.4Q78.55 0.4 77.27-0.68 76-1.75 75.5-3.75L75.5-3.75Q70.5 0.7 65.6 0.7L65.6 0.7Q62.15 0.7 59.75-1.25 57.35-3.2 57.35-6.7L57.35-6.7Q57.35-9.1 58.7-10.88 60.05-12.65 62.32-13.58 64.6-14.5 67.25-14.5L67.25-14.5Q69.5-14.5 71.4-14.08 73.3-13.65 75.3-12.85L75.3-12.85 75.3-15.05Q75.3-17.6 73.6-18.8 71.9-20 69.15-20L69.15-20Q65.25-20 59.75-17.85L59.75-17.85 58.75-21.65Q64.65-24.15 69.75-24.15L69.75-24.15Q74.6-24.15 77.27-21.78 79.95-19.4 79.95-14.85L79.95-14.85 79.95-6.2Q79.95-3.75 81.7-3.75L81.7-3.75Q82.45-3.75 83.25-4.15L83.25-4.15ZM62.2-6.95Q62.2-5.25 63.55-4.33 64.9-3.4 66.85-3.4L66.85-3.4Q68.55-3.4 70.75-4.3 72.95-5.2 75.3-6.95L75.3-6.95 75.3-9.6Q71.9-10.8 68.1-10.9L68.1-10.9Q65.65-10.9 63.92-9.88 62.2-8.85 62.2-6.95L62.2-6.95ZM116.34-5.4L118.9-2.5Q117.65-1 116.09-0.15 114.55 0.7 112.4 0.7L112.4 0.7Q109.15 0.7 106.8-1.75 104.45-4.2 103.59-8.65L103.59-8.65Q101.5-8.7 99.65-9.22 97.8-9.75 95.75-10.7L95.75-10.7 95.75-3.95 100.7-3.95 100.7 0 85.7 0 85.7-3.95 90.95-3.95 90.95-30.35 85.7-30.35 85.7-34.3 95.75-34.3 95.75-19.3Q100.75-24 106.09-24L106.09-24Q109.7-24 112.12-22.1 114.55-20.2 114.55-16.7L114.55-16.7Q114.55-13.9 112.65-11.9 110.75-9.9 107.8-9.1L107.8-9.1Q108.5-6.3 109.75-4.98 111-3.65 112.59-3.65L112.59-3.65Q114.8-3.65 116.34-5.4L116.34-5.4ZM95.75-13.9Q99.59-12.25 103.3-12.25L103.3-12.25Q105.9-12.35 107.7-13.43 109.5-14.5 109.5-16.45L109.5-16.45Q109.5-18.15 108.27-19.05 107.05-19.95 104.9-19.95L104.9-19.95Q102.9-19.95 100.52-18.9 98.15-17.85 95.75-15.85L95.75-15.85 95.75-13.9ZM142.34-6.7L144.44-3.5Q139.64 0.7 133.49 0.7L133.49 0.7Q130.14 0.7 127.14-0.7 124.14-2.1 122.29-4.8 120.44-7.5 120.44-11.2L120.44-11.2Q120.44-15.15 122.34-18.1 124.24-21.05 127.29-22.63 130.34-24.2 133.69-24.2L133.69-24.2Q136.64-24.2 138.97-23.25 141.29-22.3 142.62-20.6 143.94-18.9 143.94-16.7L143.94-16.7Q143.94-13.4 141.12-11.58 138.29-9.75 134.34-9.75L134.34-9.75Q131.79-9.75 129.59-10.28 127.39-10.8 125.14-11.8L125.14-11.8 125.14-11.35Q125.14-9 126.27-7.2 127.39-5.4 129.29-4.45 131.19-3.5 133.44-3.5L133.44-3.5Q138.54-3.5 142.34-6.7L142.34-6.7ZM134.04-20.3Q131.34-20.3 129.02-18.75 126.69-17.2 125.69-14.55L125.69-14.55Q129.49-13.2 133.29-13.2L133.29-13.2Q135.79-13.2 137.42-14.13 139.04-15.05 139.04-16.7L139.04-16.7Q139.04-18.3 137.64-19.3 136.24-20.3 134.04-20.3L134.04-20.3ZM181.54-5.35L183.24-1.65Q181.39-0.55 179.61 0.05 177.84 0.65 175.54 0.65L175.54 0.65Q171.69 0.65 169.41-1.78 167.14-4.2 167.14-8.7L167.14-8.7 167.14-19.6 161.89-19.6 161.89-23.55 167.14-23.55 167.14-30.1 172.04-30.1 172.04-23.55 179.84-23.55 179.84-19.6 172.04-19.6 172.04-8.65Q172.04-6.1 173.19-4.9 174.34-3.7 176.29-3.7L176.29-3.7Q177.69-3.7 178.94-4.13 180.19-4.55 181.54-5.35L181.54-5.35ZM206.59-6.7L208.69-3.5Q203.89 0.7 197.74 0.7L197.74 0.7Q194.39 0.7 191.39-0.7 188.39-2.1 186.54-4.8 184.69-7.5 184.69-11.2L184.69-11.2Q184.69-15.15 186.59-18.1 188.49-21.05 191.54-22.63 194.59-24.2 197.94-24.2L197.94-24.2Q200.89-24.2 203.21-23.25 205.54-22.3 206.86-20.6 208.19-18.9 208.19-16.7L208.19-16.7Q208.19-13.4 205.36-11.58 202.54-9.75 198.59-9.75L198.59-9.75Q196.04-9.75 193.84-10.28 191.64-10.8 189.39-11.8L189.39-11.8 189.39-11.35Q189.39-9 190.51-7.2 191.64-5.4 193.54-4.45 195.44-3.5 197.69-3.5L197.69-3.5Q202.79-3.5 206.59-6.7L206.59-6.7ZM198.29-20.3Q195.59-20.3 193.26-18.75 190.94-17.2 189.94-14.55L189.94-14.55Q193.74-13.2 197.54-13.2L197.54-13.2Q200.04-13.2 201.66-14.13 203.29-15.05 203.29-16.7L203.29-16.7Q203.29-18.3 201.89-19.3 200.49-20.3 198.29-20.3L198.29-20.3ZM258.18-3.95L262.83-3.95 262.83 0 249.03 0 249.03-3.95 253.28-3.95 253.28-14Q253.28-16.6 252.13-18.1 250.98-19.6 248.68-19.6L248.68-19.6Q246.63-19.6 244.48-18.25 242.33-16.9 240.28-14.4L240.28-14.4 240.28-14.15 240.28-3.95 244.58-3.95 244.58 0 231.08 0 231.08-3.95 235.38-3.95 235.38-14Q235.38-16.6 234.18-18.1 232.98-19.6 230.68-19.6L230.68-19.6Q228.63-19.6 226.48-18.23 224.33-16.85 222.23-14.3L222.23-14.3 222.23-3.95 226.58-3.95 226.58 0 212.03 0 212.03-3.95 217.33-3.95 217.33-19.6 212.03-19.6 212.03-23.55 222.23-23.55 222.23-18.4Q224.43-21.15 227.03-22.65 229.63-24.15 232.43-24.15L232.43-24.15Q235.28-24.15 237.21-22.58 239.13-21 239.88-17.95L239.88-17.95Q242.13-20.9 244.81-22.53 247.48-24.15 250.38-24.15L250.38-24.15Q254.03-24.15 256.11-21.58 258.18-19 258.18-14.15L258.18-14.15 258.18-3.95ZM283.63-24.2Q286.58-24.2 289.08-22.65 291.58-21.1 293.08-18.32 294.58-15.55 294.58-12L294.58-12Q294.58-8.35 292.95-5.45 291.33-2.55 288.53-0.93 285.73 0.7 282.33 0.7L282.33 0.7Q277.88 0.7 274.13-2.7L274.13-2.7 274.13 6.95 279.58 6.95 279.58 10.9 264.08 10.9 264.08 6.95 269.33 6.95 269.33-19.6 264.08-19.6 264.08-23.55 274.13-23.55 274.13-19Q276.08-21.4 278.58-22.8 281.08-24.2 283.63-24.2L283.63-24.2ZM281.28-3.5Q283.63-3.5 285.5-4.58 287.38-5.65 288.43-7.6 289.48-9.55 289.48-12.05L289.48-12.05Q289.48-15.6 287.45-17.82 285.43-20.05 282.28-20.05L282.28-20.05Q280.13-20.05 278.03-18.75 275.93-17.45 274.13-15.15L274.13-15.15 274.13-6.4Q277.73-3.5 281.28-3.5L281.28-3.5ZM307.53-3.95L312.98-3.95 312.98 0 297.38 0 297.38-3.95 302.63-3.95 302.63-30.35 297.38-30.35 297.38-34.3 307.53-34.3 307.53-3.95ZM341.88-4.15L342.88-0.6Q341.22 0.4 339.02 0.4L339.02 0.4Q337.17 0.4 335.9-0.68 334.63-1.75 334.13-3.75L334.13-3.75Q329.13 0.7 324.22 0.7L324.22 0.7Q320.77 0.7 318.38-1.25 315.97-3.2 315.97-6.7L315.97-6.7Q315.97-9.1 317.32-10.88 318.67-12.65 320.95-13.58 323.22-14.5 325.88-14.5L325.88-14.5Q328.13-14.5 330.02-14.08 331.92-13.65 333.92-12.85L333.92-12.85 333.92-15.05Q333.92-17.6 332.22-18.8 330.52-20 327.77-20L327.77-20Q323.88-20 318.38-17.85L318.38-17.85 317.38-21.65Q323.27-24.15 328.38-24.15L328.38-24.15Q333.22-24.15 335.9-21.78 338.57-19.4 338.57-14.85L338.57-14.85 338.57-6.2Q338.57-3.75 340.32-3.75L340.32-3.75Q341.07-3.75 341.88-4.15L341.88-4.15ZM320.82-6.95Q320.82-5.25 322.17-4.33 323.52-3.4 325.47-3.4L325.47-3.4Q327.17-3.4 329.38-4.3 331.57-5.2 333.92-6.95L333.92-6.95 333.92-9.6Q330.52-10.8 326.72-10.9L326.72-10.9Q324.27-10.9 322.55-9.88 320.82-8.85 320.82-6.95L320.82-6.95ZM363.02-5.35L364.72-1.65Q362.87-0.55 361.1 0.05 359.32 0.65 357.02 0.65L357.02 0.65Q353.17 0.65 350.9-1.78 348.62-4.2 348.62-8.7L348.62-8.7 348.62-19.6 343.37-19.6 343.37-23.55 348.62-23.55 348.62-30.1 353.52-30.1 353.52-23.55 361.32-23.55 361.32-19.6 353.52-19.6 353.52-8.65Q353.52-6.1 354.67-4.9 355.82-3.7 357.77-3.7L357.77-3.7Q359.17-3.7 360.42-4.13 361.67-4.55 363.02-5.35L363.02-5.35ZM373.42-28.9Q371.82-28.9 370.72-29.75 369.62-30.6 369.62-31.9L369.62-31.9Q369.62-33.25 370.72-34.13 371.82-35 373.42-35L373.42-35Q375.12-35 376.22-34.13 377.32-33.25 377.32-31.9L377.32-31.9Q377.32-30.6 376.22-29.75 375.12-28.9 373.42-28.9L373.42-28.9ZM376.42-3.95L381.77-3.95 381.77 0 366.22 0 366.22-3.95 371.52-3.95 371.52-19.6 366.22-19.6 366.22-23.55 376.42-23.55 376.42-3.95ZM413.52-3.95L418.22-3.95 418.22 0 404.32 0 404.32-3.95 408.67-3.95 408.67-13.7Q408.67-16.45 407.29-18.03 405.92-19.6 403.37-19.6L403.37-19.6Q399.02-19.6 394.17-14.1L394.17-14.1 394.17-3.95 398.52-3.95 398.52 0 383.97 0 383.97-3.95 389.27-3.95 389.27-19.6 383.97-19.6 383.97-23.55 394.17-23.55 394.17-18Q396.97-21.1 399.54-22.63 402.12-24.15 405.07-24.15L405.07-24.15Q409.12-24.15 411.32-21.55 413.52-18.95 413.52-13.85L413.52-13.85 413.52-3.95ZM439.26-4.45Q442.46-4.45 444.44-2.85 446.41-1.25 446.41 1.65L446.41 1.65Q446.41 4.45 444.31 6.55 442.21 8.65 438.66 9.78 435.11 10.9 430.96 10.9L430.96 10.9Q425.91 10.9 422.69 9.03 419.46 7.15 419.46 3.9L419.46 3.9Q419.46 2.45 420.24 1.18 421.01-0.1 422.21-1.05L422.21-1.05Q421.21-1.8 420.69-2.83 420.16-3.85 420.16-5L420.16-5Q420.16-6.85 421.21-8.33 422.26-9.8 423.96-10.8L423.96-10.8Q422.26-12.9 422.26-15.6L422.26-15.6Q422.26-18.3 423.84-20.25 425.41-22.2 427.86-23.2 430.31-24.2 432.86-24.2L432.86-24.2Q435.81-24.2 438.31-23.1L438.31-23.1Q439.21-25.7 441.24-27.05 443.26-28.4 446.06-28.5L446.06-28.5 446.06-24.4Q444.11-24.3 442.79-23.75 441.46-23.2 440.46-21.85L440.46-21.85Q443.56-19.5 443.56-15.75L443.56-15.75Q443.56-13.05 442.01-11.1 440.46-9.15 437.99-8.15 435.51-7.15 432.86-7.15L432.86-7.15Q429.01-7.15 425.96-9.05L425.96-9.05Q424.46-7.7 424.46-6.15L424.46-6.15Q424.46-4.85 425.49-4.13 426.51-3.4 428.31-3.4L428.31-3.4Q430.01-3.4 433.41-3.9L433.41-3.9Q434.76-4.1 436.31-4.28 437.86-4.45 439.26-4.45L439.26-4.45ZM432.91-20.7Q430.46-20.7 428.76-19.28 427.06-17.85 427.06-15.6L427.06-15.6Q427.06-13.35 428.74-12 430.41-10.65 432.91-10.65L432.91-10.65Q435.51-10.65 437.14-12.05 438.76-13.45 438.76-15.75L438.76-15.75Q438.76-18 437.09-19.35 435.41-20.7 432.91-20.7L432.91-20.7ZM431.66 6.85Q434.31 6.85 436.69 6.25 439.06 5.65 440.49 4.53 441.91 3.4 441.91 1.95L441.91 1.95Q441.91-0.6 438.21-0.6L438.21-0.6Q437.21-0.6 436.01-0.45 434.81-0.3 433.66-0.1L433.66-0.1Q432.26 0.15 430.64 0.35 429.01 0.55 427.46 0.55L427.46 0.55Q426.11 0.55 424.71 0.2L424.71 0.2Q423.71 1.35 423.71 2.9L423.71 2.9Q423.71 4.75 425.81 5.8 427.91 6.85 431.66 6.85L431.66 6.85ZM486.11-6.7L488.21-3.5Q483.41 0.7 477.26 0.7L477.26 0.7Q473.91 0.7 470.91-0.7 467.91-2.1 466.06-4.8 464.21-7.5 464.21-11.2L464.21-11.2Q464.21-15.15 466.11-18.1 468.01-21.05 471.06-22.63 474.11-24.2 477.46-24.2L477.46-24.2Q480.41-24.2 482.73-23.25 485.06-22.3 486.38-20.6 487.71-18.9 487.71-16.7L487.71-16.7Q487.71-13.4 484.88-11.58 482.06-9.75 478.11-9.75L478.11-9.75Q475.56-9.75 473.36-10.28 471.16-10.8 468.91-11.8L468.91-11.8 468.91-11.35Q468.91-9 470.03-7.2 471.16-5.4 473.06-4.45 474.96-3.5 477.21-3.5L477.21-3.5Q482.31-3.5 486.11-6.7L486.11-6.7ZM477.81-20.3Q475.11-20.3 472.78-18.75 470.46-17.2 469.46-14.55L469.46-14.55Q473.26-13.2 477.06-13.2L477.06-13.2Q479.56-13.2 481.18-14.13 482.81-15.05 482.81-16.7L482.81-16.7Q482.81-18.3 481.41-19.3 480.01-20.3 477.81-20.3L477.81-20.3ZM518.06-4.15L519.06-0.6Q517.41 0.4 515.21 0.4L515.21 0.4Q513.36 0.4 512.08-0.68 510.81-1.75 510.31-3.75L510.31-3.75Q505.31 0.7 500.41 0.7L500.41 0.7Q496.96 0.7 494.56-1.25 492.16-3.2 492.16-6.7L492.16-6.7Q492.16-9.1 493.51-10.88 494.86-12.65 497.13-13.58 499.41-14.5 502.06-14.5L502.06-14.5Q504.31-14.5 506.21-14.08 508.11-13.65 510.11-12.85L510.11-12.85 510.11-15.05Q510.11-17.6 508.41-18.8 506.71-20 503.96-20L503.96-20Q500.06-20 494.56-17.85L494.56-17.85 493.56-21.65Q499.46-24.15 504.56-24.15L504.56-24.15Q509.41-24.15 512.08-21.78 514.76-19.4 514.76-14.85L514.76-14.85 514.76-6.2Q514.76-3.75 516.51-3.75L516.51-3.75Q517.26-3.75 518.06-4.15L518.06-4.15ZM497.01-6.95Q497.01-5.25 498.36-4.33 499.71-3.4 501.66-3.4L501.66-3.4Q503.36-3.4 505.56-4.3 507.76-5.2 510.11-6.95L510.11-6.95 510.11-9.6Q506.71-10.8 502.91-10.9L502.91-10.9Q500.46-10.9 498.73-9.88 497.01-8.85 497.01-6.95L497.01-6.95ZM533.8-13.9Q538.4-12.65 540.88-10.78 543.35-8.9 543.35-5.75L543.35-5.75Q543.35-2.85 540.9-1.07 538.45 0.7 534.85 0.7L534.85 0.7Q532.35 0.7 529.93-0.18 527.5-1.05 525.6-2.6L525.6-2.6 525.6 0.05 521.8 0.05 521.8-7.6 523.95-7.8Q525.85-5.65 528.73-4.13 531.6-2.6 534.35-2.6L534.35-2.6Q536.2-2.6 537.25-3.3 538.3-4 538.3-5.3L538.3-5.3Q538.3-6.8 536.65-7.78 535-8.75 531.25-9.75L531.25-9.75Q526.75-10.95 524.33-12.78 521.9-14.6 521.9-17.55L521.9-17.55Q521.9-19.4 522.93-20.93 523.95-22.45 525.83-23.33 527.7-24.2 530.15-24.2L530.15-24.2Q532.55-24.2 534.73-23.4 536.9-22.6 538.5-21.15L538.5-21.15 538.5-23.55 542.25-23.55 542.25-15.95 540.05-15.7Q538.65-18.05 536.23-19.48 533.8-20.9 531.4-20.9L531.4-20.9Q529.45-20.9 528.2-20.13 526.95-19.35 526.95-18.1L526.95-18.1Q526.95-16.75 528.6-15.83 530.25-14.9 533.8-13.9L533.8-13.9ZM577.7-23.55L577.7-19.6 574-19.6 564.1 2.6Q562 7.25 559.38 9.58 556.75 11.9 553.25 11.9L553.25 11.9Q551.3 11.9 549.73 11.28 548.15 10.65 546.3 9.45L546.3 9.45 548.3 5.7Q550.85 7.55 553.25 7.55L553.25 7.55Q555.4 7.55 557.1 6.18 558.8 4.8 560.1 1.8L560.1 1.8 560.45 1 550.35-19.6 546.45-19.6 546.45-23.55 559.65-23.55 559.65-19.95 555.6-19.95 562.7-4.15 569.65-19.95 565.8-19.95 565.8-23.55 577.7-23.55Z" opacity="1" transform="matrix(1,0,0,1,0,0)" fill="#4b91f1" class="undefined-text-1" data-fill-palette-color="secondary" id="text-1"></path></svg></g></svg></g></svg></g></svg></g></svg></g><defs></defs></svg><rect width="395.52" height="97.16236017779204" fill="none" stroke="none" visibility="hidden"></rect></g></svg></g></svg>